# xmcd
#
# Track frame offsets:
#	150
#	15150
#	30911
#	41130
#	51891
#	62497
#	75107
#	105443
#	114064
#	124270
#	136801
#	145001
#	155482
#	166465
#	177364
#	188124
#	198822
#	207328
#	225650
#	238922
#	248211
#
# Disc length: 3473 seconds
#
# Revision: 1
# Processed by: cddbd v1.5.2PL0 Copyright (c) Steve Scherf et al.
# Submitted via: audiograbber 1.83.01
#
DISCID=050d8f15
DTITLE=Various Artist - New Orleans [CD2]
DYEAR=2010
DGENRE=Blues
TTITLE0=Mac Rebennack - Storm Warning
TTITLE1=Frankie Lee Sims - Walking with Frankie
TTITLE2=The Blues Dots - Saturday Nicht Fish Fry
TTITLE3=Big Boy Myles - New Orleans
TTITLE4=Joe Dyson Orchestra - Looped
TTITLE5=Huey 'Piano' Smith and his Clowns - High Blood Pressure
TTITLE6=Professor Longhair - Medley: She walks Right In - Shake Rattle and Roll
TTITLE6=Sick and Tired
TTITLE7=Lee Dorsey - Great Googa Mooga
TTITLE8=Earl King - You can fly high
TTITLE9=Fats Domino - I´m walking
TTITLE10=Roy Brown - Hip shakin' baby
TTITLE11=Jessie Hill - Whip it to me
TTITLE12=Little Joe Gains - She won't leave no more
TTITLE13=Joe Tex - You little baby faced thing
TTITLE14=Supremes - Don't leave me here to cry
TTITLE15=Frankie Ford - Alimony
TTITLE16=Jewel King - 3x7=21
TTITLE17=Little Richard - I don't know what you've got but it's got me (Parts1&
TTITLE17=2)
TTITLE18=Johnny Adams - I can't be all bad
TTITLE19=Bobby Marchan - There's something on your mind
TTITLE20=Irma Thomas - Ruler of my heart
EXTD=
EXTT0=
EXTT1=
EXTT2=
EXTT3=
EXTT4=
EXTT5=
EXTT6=
EXTT7=
EXTT8=
EXTT9=
EXTT10=
EXTT11=
EXTT12=
EXTT13=
EXTT14=
EXTT15=
EXTT16=
EXTT17=
EXTT18=
EXTT19=
EXTT20=
PLAYORDER=
